<?xml version="1.0" encoding="UTF-8"?>
<svg width="1024px" height="1024px" viewBox="0 0 1024 1024" version="1.1" xmlns="http://www.w3.org/2000/svg" xmlns:xlink="http://www.w3.org/1999/xlink">
    <title>Ouro MD app icon</title>
    <defs>
        <filter x="-8.5%" y="-20.0%" width="116.9%" height="140.0%" filterUnits="objectBoundingBox" id="wordmarkShadow">
            <feOffset dx="0" dy="0" in="SourceAlpha" result="shadowOffsetOuter1"></feOffset>
            <feGaussianBlur stdDeviation="20" in="shadowOffsetOuter1" result="shadowBlurOuter1"></feGaussianBlur>
            <feColorMatrix values="0 0 0 0 0   0 0 0 0 0   0 0 0 0 0  0 0 0 0.301190997 0" type="matrix" in="shadowBlurOuter1" result="shadowMatrixOuter1"></feColorMatrix>
            <feMerge>
                <feMergeNode in="shadowMatrixOuter1"></feMergeNode>
                <feMergeNode in="SourceGraphic"></feMergeNode>
            </feMerge>
        </filter>
    </defs>
    <!-- macOS icon grid: 824x824 body in a 1024 canvas (100px padding all round),
         so the icon sits correctly beside other dock icons. The locked artwork
         is authored on its own 1024 artboard and scaled into the body. -->
    <g id="AppIcon" stroke="none" stroke-width="1" fill="none" fill-rule="evenodd" transform="translate(100, 100) scale(0.8046875)">
        <rect id="Card" fill="#FFFFFF" x="0" y="0" width="1024" height="1024" rx="227.556" ry="227.556"></rect>
        <g id="Lines">
            <rect id="line-mid-1" fill="#F3F2F2" x="80" y="293" width="862" height="50" rx="25"></rect>
            <rect id="line-top-2" fill="#F3F2F2" x="80" y="193" width="862" height="50" rx="25"></rect>
            <rect id="line-r-393" fill="#F3F2F2" x="858" y="393" width="84" height="50" rx="25"></rect>
            <rect id="line-l-393" fill="#F3F2F2" x="80" y="393.340909" width="638" height="49.3181818" rx="24.6590909"></rect>
            <rect id="line-r-493" fill="#F3F2F2" x="858" y="493" width="84" height="50" rx="25"></rect>
            <rect id="line-l-493" fill="#F3F2F2" x="80" y="493" width="155" height="50" rx="25"></rect>
            <rect id="line-bot-1" fill="#F3F2F2" x="79.5" y="693" width="863" height="50" rx="25"></rect>
            <rect id="line-bot-2" fill="#F3F2F2" x="79.5" y="793" width="863" height="50" rx="25"></rect>
        </g>
        <g id="Wordmark" filter="url(#wordmarkShadow)" transform="translate(148, 358)" fill="#222222" fill-rule="nonzero">
            <path d="M74.035829,263.534586 C74.035829,273.370652 70.3560363,281.927229 62.9964509,289.204318 C55.716861,296.401439 47.0773478,300 37.0779111,300 C26.998479,300 18.3189679,296.441423 11.0393781,289.32427 C3.67979269,282.127149 0,273.530588 0,263.534586 C0,253.538585 3.67979269,244.902039 11.0393781,237.62495 C18.3189679,230.347861 26.998479,226.709316 37.0779111,226.709316 C47.0773478,226.709316 55.716861,230.387845 62.9964509,237.744902 C70.3560363,245.101959 74.035829,253.698521 74.035829,263.534586 Z" id="dot"></path>
            <g id="md" transform="translate(87.7151, 0)">
                <path d="M374.738888,289.804078 L263.145175,289.804078 L263.145175,276.129548 C265.865022,275.729708 268.744859,275.409836 271.784688,275.169932 C274.744521,274.930028 277.224382,274.330268 279.224269,273.370652 C281.944116,272.091164 283.704017,269.972011 284.503972,267.013195 C285.223931,264.134346 285.583911,260.37585 285.583911,255.737705 L285.583911,168.292683 C285.583911,155.417833 283.304039,145.781687 278.744296,139.384246 C274.184553,132.986805 267.66492,129.788085 259.185398,129.788085 C253.8257,129.788085 249.065968,130.627749 244.906202,132.307077 C240.666441,133.986405 236.826658,136.065574 233.386851,138.544582 C229.707059,141.183527 226.867219,143.822471 224.867331,146.461415 C222.867444,149.020392 221.187539,151.259496 219.827615,153.178729 L219.827615,253.698521 C219.827615,258.176729 220.347586,261.815274 221.387527,264.614154 C222.507464,267.413035 224.507352,269.652139 227.387189,271.331467 C229.387077,272.45102 231.666948,273.45062 234.226804,274.330268 C236.78666,275.129948 239.466509,275.729708 242.266351,276.129548 L242.266351,289.804078 L135.352375,289.804078 L135.352375,276.129548 C137.752239,275.889644 140.632077,275.569772 143.991888,275.169932 C147.351698,274.85006 149.831559,274.2503 151.431469,273.370652 C154.07132,272.011196 155.791223,270.011995 156.591178,267.373051 C157.471128,264.734106 157.911104,260.855658 157.911104,255.737705 L157.911104,168.292683 C157.911104,155.417833 155.631232,145.781687 151.071489,139.384246 C146.511746,132.986805 139.952115,129.788085 131.392598,129.788085 C126.0329,129.788085 121.273168,130.627749 117.113402,132.307077 C112.953636,133.986405 109.113853,136.065574 105.594051,138.544582 C101.994254,141.183527 99.1944116,143.822471 97.1945243,146.461415 C95.1946369,149.020392 93.5147316,151.259496 92.1548082,153.178729 L92.1548082,253.698521 C92.1548082,258.016793 92.7147766,261.615354 93.8347135,264.494202 C94.9546504,267.373051 96.9545378,269.652139 99.8343755,271.331467 C101.834263,272.45102 104.114134,273.45062 106.67399,274.330268 C109.233846,275.129948 111.953693,275.729708 114.833531,276.129548 L114.833531,289.804078 L2.63985128,289.804078 L2.63985128,276.129548 C5.839671,275.889644 8.99949299,275.569772 12.1193172,275.169932 C15.2391415,274.85006 17.9189905,274.2503 20.1588643,273.370652 C24.1586389,271.851259 26.9184835,269.692123 28.4383978,266.893243 C29.9583122,264.094362 30.7182694,260.37585 30.7182694,255.737705 L30.7182694,146.821271 C30.7182694,142.822871 29.6383302,138.904438 27.4784519,135.065974 C25.3985691,131.227509 22.8387133,128.268693 19.7988846,126.189524 C17.5590108,124.670132 14.7191708,123.430628 11.2793645,122.471012 C7.83955833,121.431427 4.07977015,120.751699 0,120.431827 L0,106.757297 L89.2749704,101.839264 L92.1548082,104.598161 L92.1548082,131.107557 L92.8747676,131.107557 C96.3945693,127.988804 100.554335,124.270292 105.354065,119.952019 C110.153794,115.633747 114.67354,112.155138 118.913301,109.516194 C123.553039,106.557377 129.472706,104.078369 136.6723,102.079168 C143.95189,100.079968 151.871444,99.0803679 160.430962,99.0803679 C174.670159,99.0803679 186.589488,102.159136 196.188947,108.316673 C205.708411,114.47421 212.46803,122.670932 216.467805,132.906837 L218.14771,132.906837 C221.747507,129.548181 226.187257,125.589764 231.46696,121.031587 C236.666667,116.473411 241.466396,112.834866 245.866148,110.115954 C250.745873,106.997201 256.945524,104.358257 264.465101,102.19912 C272.064672,100.119952 280.184215,99.0803679 288.823728,99.0803679 C307.622669,99.0803679 322.101853,104.638145 332.261281,115.753699 C342.500704,126.789284 347.620416,142.542983 347.620416,163.014794 L347.620416,254.058377 C347.620416,258.696521 348.300377,262.415034 349.660301,265.213914 C351.020224,268.012795 353.500085,270.171931 357.099882,271.691323 C359.099769,272.570972 361.579629,273.45062 364.539463,274.330268 C367.499296,275.129948 370.899104,275.729708 374.738888,276.129548 L374.738888,289.804078 Z" id="m"></path>
                <path d="M622.284942,285.845662 L530.01014,291.363455 L527.130303,288.72451 L527.130303,271.451419 L525.810377,271.091563 C519.730719,277.728908 511.491184,283.486605 501.091769,288.364654 C490.61236,293.322671 480.092953,295.801679 469.533547,295.801679 C444.254972,295.801679 423.456143,286.445422 407.137063,267.732907 C390.737987,249.020392 382.538449,224.790084 382.538449,195.041983 C382.538449,168.732507 391.697933,146.141543 410.0169,127.269092 C428.335868,108.476609 450.454622,99.0803679 476.373162,99.0803679 C486.612585,99.0803679 496.252042,100.239904 505.291533,102.558976 C514.251028,104.798081 521.410625,107.477009 526.770323,110.595762 L526.770323,49.4202319 C526.770323,44.7820872 525.850375,40.4638145 524.010478,36.4654138 C522.090586,32.3870452 519.570728,29.2283087 516.450904,26.9892043 C512.611121,24.1903239 507.771393,22.2311076 501.931722,21.1115554 C496.172047,19.9120352 490.332376,19.032387 484.412709,18.472611 L484.412709,4.91803279 L585.56701,0 L588.446848,2.99880048 L588.446848,248.420632 C588.446848,253.138745 589.206805,257.137145 590.72672,260.415834 C592.326629,263.694522 594.846488,266.253499 598.286294,268.092763 C600.926145,269.452219 604.765929,270.451819 609.805645,271.091563 C614.925356,271.731307 619.085122,272.091164 622.284942,272.171132 L622.284942,285.845662 Z M526.770323,252.499 L526.770323,146.821271 C525.890372,143.942423 524.69044,140.743703 523.170526,137.22511 C521.570616,133.706517 519.410737,130.387845 516.690891,127.269092 C514.21103,124.710116 510.85122,122.431028 506.611459,120.431827 C502.451693,118.432627 497.771957,117.433027 492.572249,117.433027 C480.012957,117.433027 469.773534,124.470212 461.85398,138.544582 C453.854431,152.618952 449.854656,172.530988 449.854656,198.280688 C449.854656,208.356657 450.574616,217.433027 452.014534,225.509796 C453.454453,233.586565 455.974311,240.903639 459.574109,247.461016 C463.173906,254.098361 467.813644,259.296281 473.493324,263.054778 C479.173004,266.813275 486.012619,268.692523 494.012168,268.692523 C501.61174,268.692523 507.931384,267.213115 512.9711,264.254298 C517.930821,261.295482 522.530562,257.377049 526.770323,252.499 Z" id="d"></path>
            </g>
        </g>
    </g>
</svg>
